<?xml version="1.0" standalone="no"?>
<!DOCTYPE svg PUBLIC "-//W3C//DTD SVG 20010904//EN"
 "http://www.w3.org/TR/2001/REC-SVG-20010904/DTD/svg10.dtd">
<svg version="1.0" xmlns="http://www.w3.org/2000/svg"
 width="400.000000pt" height="400.000000pt" viewBox="0 0 400.000000 400.000000"
 preserveAspectRatio="xMidYMid meet">
<metadata>
Created by potrace 1.11, written by Peter Selinger 2001-2013
</metadata>
<g transform="translate(0.000000,400.000000) scale(0.100000,-0.100000)"
fill="#000000" stroke="none">
<path d="M1880 3751 c-55 -6 -150 -39 -112 -41 8 0 10 -8 6 -26 -5 -21 -4 -25
6 -19 8 5 11 3 8 -5 -5 -15 -14 -20 -83 -47 -30 -11 -54 -27 -60 -41 -15 -33
-25 -27 -25 15 l0 36 -25 -23 c-14 -13 -31 -42 -37 -64 -6 -23 -16 -48 -22
-56 -10 -13 -9 -13 7 -1 21 16 22 3 3 -25 -8 -11 -17 -37 -21 -57 -8 -39 -21
-48 -28 -19 -4 15 -5 15 -6 -1 0 -11 -11 -33 -23 -50 -13 -17 -39 -59 -59 -94
-19 -35 -39 -60 -44 -56 -4 5 -5 3 -2 -4 4 -6 -2 -32 -13 -58 -16 -37 -20 -69
-20 -156 0 -60 2 -109 5 -109 2 0 16 5 30 12 28 12 29 18 16 66 -9 30 1 47 12
20 3 -7 6 -2 6 12 2 35 15 53 37 48 16 -3 20 -15 25 -70 7 -82 25 -110 80
-128 76 -24 128 -66 129 -103 0 -10 -11 -33 -25 -51 -28 -37 -32 -56 -12 -56
11 0 16 -28 21 -112 5 -85 11 -119 24 -137 28 -38 37 -35 63 21 13 29 28 56
34 60 18 13 75 9 75 -5 0 -9 10 -12 30 -9 37 5 115 -15 131 -34 9 -12 3 -14
-37 -14 -27 0 -55 -4 -62 -8 -19 -13 -4 -69 20 -76 13 -3 18 -10 15 -19 -4
-11 6 -16 39 -21 61 -8 144 -52 144 -77 0 -10 -88 -39 -120 -39 -25 0 -44 -12
-133 -80 l-27 -22 -37 23 c-25 16 -54 24 -90 24 -70 2 -80 -5 -57 -41 10 -16
21 -31 24 -34 3 -3 21 -31 40 -64 24 -40 52 -70 90 -96 80 -55 99 -79 112
-144 12 -53 11 -59 -7 -72 -26 -19 -36 -18 -67 11 -15 14 -32 25 -37 25 -9 0
-28 -43 -20 -47 2 -1 -6 -12 -18 -25 -19 -21 -21 -28 -12 -73 5 -27 11 -61 13
-75 6 -48 18 -79 32 -84 8 -3 14 -12 14 -20 0 -8 6 -19 14 -23 21 -12 96 -130
96 -152 0 -10 -9 -26 -20 -36 -12 -11 -28 -34 -37 -53 -16 -33 -16 -35 3 -49
23 -17 72 -10 88 13 7 8 16 14 21 13 6 -1 17 0 25 4 8 3 33 7 55 10 22 2 58
16 79 31 50 33 66 33 101 -4 16 -17 32 -30 37 -30 12 0 165 -115 248 -186 76
-65 95 -74 103 -51 2 6 7 9 11 6 3 -3 -11 -23 -31 -44 -52 -54 -206 -124 -286
-132 -69 -6 -201 21 -275 57 -23 11 -45 20 -51 20 -5 0 -11 4 -13 8 -1 4 -37
32 -79 60 -109 75 -214 195 -311 356 -35 58 -45 82 -36 87 9 6 -4 41 -49 131
-34 68 -71 144 -82 169 -23 55 -34 64 -52 43 -11 -14 -10 -19 9 -34 18 -15 20
-23 13 -43 -10 -26 -8 -80 4 -109 12 -29 -3 -21 -18 10 -8 15 -12 33 -10 40 3
6 -1 12 -7 12 -9 0 -11 15 -8 50 3 34 1 56 -8 68 -13 16 -14 16 -7 -2 4 -13 3
-17 -4 -13 -6 4 -13 3 -15 -2 -5 -15 -58 -25 -58 -11 0 6 4 9 8 6 13 -7 27 6
45 42 15 31 15 33 -1 30 -10 -2 -16 -11 -14 -22 3 -13 -1 -17 -12 -13 -9 4
-19 0 -24 -9 -6 -11 -12 -7 -24 19 -15 32 -15 36 4 65 11 18 31 35 43 38 26 6
40 30 25 39 -6 4 -15 3 -20 0 -8 -5 -373 -22 -542 -26 -28 -1 -41 -26 -35 -69
7 -52 -8 -88 -52 -125 -28 -24 -33 -26 -27 -10 4 11 9 59 11 107 3 80 1 89
-21 113 -31 33 -30 59 1 83 21 17 31 18 67 10 55 -12 86 -3 98 27 9 23 24 30
57 26 27 -3 320 18 336 24 9 4 17 10 17 14 0 17 -151 81 -189 81 -24 0 -52 9
-75 25 -20 14 -41 25 -45 25 -5 0 -14 -15 -21 -32 -24 -60 -33 -66 -98 -56
-31 5 -75 11 -97 12 -22 2 -50 6 -61 10 -19 6 -24 0 -39 -41 -9 -27 -21 -73
-25 -104 -14 -86 -25 -106 -60 -114 -24 -5 -44 -1 -79 16 -87 43 -104 72 -51
90 36 13 36 13 9 56 -26 42 -21 67 26 116 39 41 44 71 20 117 -23 44 -49 54
-102 40 -53 -15 -61 -10 -83 58 -9 28 -22 48 -32 50 -22 4 -68 -64 -68 -101 0
-75 -45 -120 -113 -114 l-32 2 -3 -247 -2 -247 31 9 c17 5 36 13 42 19 7 5 30
6 55 1 29 -5 58 -3 89 6 64 19 117 19 109 -1 -3 -9 0 -15 9 -15 24 0 67 -43
60 -61 -8 -22 -56 -29 -191 -29 -142 0 -204 -8 -204 -27 0 -12 28 -13 189 -7
172 6 191 5 219 -12 31 -17 32 -17 69 1 26 13 63 19 121 21 l82 2 0 -51 c-1
-81 -17 -177 -34 -196 -9 -10 -13 -21 -9 -24 3 -4 1 -7 -6 -7 -9 0 -11 6 -6
18 4 9 9 44 11 77 3 59 3 59 -9 23 -7 -20 -24 -49 -38 -65 -14 -15 -45 -55
-69 -88 -25 -33 -69 -87 -98 -120 -29 -32 -55 -71 -58 -85 -3 -14 -9 -34 -14
-45 -4 -11 -13 -40 -20 -65 -7 -25 -23 -73 -36 -107 -13 -34 -24 -66 -24 -71
0 -5 -16 -26 -35 -46 -19 -21 -35 -43 -35 -51 0 -7 -7 -16 -16 -19 -8 -3 -12
-11 -9 -17 4 -5 -1 -19 -11 -30 -9 -10 -13 -19 -8 -19 5 0 1 -5 -8 -11 -10 -5
-18 -17 -18 -26 0 -10 -6 -13 -16 -9 -18 7 -49 -23 -90 -86 -22 -35 -24 -47
-24 -163 0 -120 1 -125 19 -116 15 8 26 3 62 -29 l43 -40 897 0 c883 1 897 1
902 20 7 27 53 27 62 0 5 -17 15 -20 71 -20 56 0 64 2 64 19 0 20 18 31 51 31
14 0 19 -7 19 -25 0 -24 2 -25 65 -25 56 0 65 2 65 18 0 10 3 22 6 25 10 10
44 -12 44 -28 0 -20 88 -21 96 -1 3 8 14 16 24 19 26 7 183 -12 194 -24 6 -5
282 -9 663 -9 l653 0 0 766 0 765 -50 21 c-27 11 -50 25 -50 30 0 11 -81 48
-92 42 -4 -3 -26 0 -49 6 -36 10 -40 14 -34 33 13 43 10 51 -22 60 -41 12 -60
4 -75 -30 -7 -15 -18 -34 -25 -40 -26 -29 -63 -6 -63 38 0 21 -10 35 -40 56
-44 31 -60 68 -58 130 2 44 -18 77 -53 88 -27 9 -52 -19 -40 -42 40 -76 44
-120 15 -144 -8 -7 -40 -11 -71 -10 -93 3 -121 -19 -65 -50 32 -19 182 -20
205 -1 11 9 18 6 35 -18 35 -47 25 -70 -29 -70 -11 0 -22 -7 -25 -15 -8 -21
-42 -19 -40 2 2 26 -67 42 -153 34 -71 -7 -74 -6 -124 26 -38 24 -59 32 -78
28 -31 -7 -83 11 -74 25 3 5 18 10 33 10 21 0 28 5 29 22 1 12 11 34 23 49 11
16 20 33 20 38 0 16 -48 44 -65 37 -19 -7 -66 -112 -59 -131 4 -8 2 -15 -2
-16 -71 -8 -154 -5 -178 7 -16 8 -41 14 -56 14 -15 0 -38 9 -51 19 -19 15 -34
18 -69 14 -37 -4 -48 -1 -64 16 -16 18 -18 33 -14 125 5 103 5 105 40 144 42
47 79 148 92 258 2 16 16 48 30 69 34 50 68 162 70 231 0 30 3 54 6 53 3 0 19
-19 35 -42 28 -38 36 -43 90 -50 47 -7 66 -5 96 9 51 23 79 54 86 97 5 36 5
36 -36 43 -22 4 -41 10 -41 14 0 14 -41 19 -69 9 -14 -5 -35 -21 -47 -35 -16
-19 -30 -25 -61 -26 -23 0 -46 3 -52 6 -6 4 -11 2 -11 -5 0 -24 -10 -1 -24 52
-10 37 -12 68 -6 99 10 54 -13 341 -33 416 -19 66 -68 168 -108 222 -69 94
-316 224 -449 237 -19 2 -55 8 -80 14 -25 6 -52 10 -60 9 -8 -1 -44 -4 -80 -7z
m-52 -139 c6 -19 -61 -78 -100 -87 -33 -8 -33 -8 -5 -12 31 -5 30 -3 17 -37
-5 -14 -16 -26 -24 -26 -8 0 -44 -16 -80 -35 -70 -37 -72 -36 -60 25 5 24 15
36 38 45 37 16 144 98 164 126 15 22 43 22 50 1z m609 -94 c-3 -8 -6 -5 -6 6
-1 11 2 17 5 13 3 -3 4 -12 1 -19z m-329 -122 c86 -25 139 -62 129 -90 -10
-27 -57 -51 -75 -39 -14 8 -17 5 -18 -18 -1 -17 5 -31 15 -35 14 -5 13 -7 -4
-14 -39 -16 -47 -12 -40 20 6 29 6 30 -20 20 -14 -5 -37 -10 -50 -10 -25 0
-24 3 -41 -107 -5 -32 -30 -51 -47 -34 -6 6 -4 24 6 50 17 41 10 58 -18 47 -8
-3 -15 -2 -15 3 0 5 10 11 22 14 12 4 19 9 16 13 -4 3 -22 1 -40 -5 -18 -6
-107 -15 -198 -20 -91 -6 -189 -17 -218 -25 -68 -19 -67 -14 30 99 81 95 137
130 242 152 85 17 223 9 324 -21z m-713 -266 c-3 -5 1 -10 9 -10 9 0 16 -4 16
-10 0 -15 -27 -12 -33 4 -3 8 -3 17 0 20 10 10 15 7 8 -4z m623 -75 c20 -15
21 -21 15 -91 -5 -68 -4 -78 17 -106 23 -31 23 -31 3 -47 -12 -9 -26 -26 -32
-38 -7 -14 -21 -23 -36 -23 -13 0 -32 -10 -42 -23 -10 -13 -27 -23 -38 -24
-11 -1 -30 -4 -41 -8 -18 -6 -22 -2 -28 28 -3 19 -3 42 0 51 6 15 2 17 -32 10
-34 -6 -37 -5 -27 8 7 8 11 17 9 19 -2 2 19 25 46 51 35 33 49 41 45 28 -10
-40 10 -19 22 23 27 89 63 157 84 157 7 0 22 -7 35 -15z m-422 -151 c19 -13
22 -20 13 -30 -9 -11 -9 -14 0 -14 7 0 9 -5 5 -11 -4 -6 -9 -7 -13 -2 -3 5
-24 16 -45 24 -44 16 -57 35 -29 42 33 9 44 7 69 -9z m371 -336 c18 -18 33
-34 33 -37 0 -4 -31 -7 -70 -8 -48 -2 -70 1 -70 9 0 15 50 68 64 68 5 0 25
-14 43 -32z m-158 -12 c15 -18 -2 -56 -24 -56 -22 0 -28 20 -14 46 14 28 22
30 38 10z m-1693 -572 c26 -40 -21 -85 -54 -52 -18 18 -15 56 6 67 22 13 32
10 48 -15z m1070 -340 c-3 -8 -2 -12 4 -9 5 3 14 -4 20 -16 9 -17 9 -20 0 -14
-12 7 -9 -8 8 -54 3 -8 1 -12 -5 -8 -7 4 -9 -20 -8 -69 1 -41 -2 -69 -7 -62
-4 7 -8 21 -8 31 0 38 -42 143 -65 163 -13 12 -21 25 -18 28 4 3 17 -3 29 -15
14 -13 22 -16 21 -7 -1 34 4 48 19 48 10 0 14 -5 10 -16z m131 -146 c-3 -13
-2 -51 2 -85 4 -35 4 -63 1 -63 -10 0 -21 135 -14 154 9 24 17 19 11 -6z m0
-250 c-2 -13 -4 -3 -4 22 0 25 2 35 4 23 2 -13 2 -33 0 -45z m653 -138 c0 -5
-4 -10 -10 -10 -5 0 -10 5 -10 10 0 6 5 10 10 10 6 0 10 -4 10 -10z m-1357
-714 c99 -19 149 -40 141 -60 -7 -18 -16 -20 -30 -7 -14 14 -162 44 -189 38
-27 -5 -33 11 -13 31 7 7 13 12 14 12 1 0 36 -6 77 -14z m187 -30 c0 -2 -7 -7
-16 -10 -8 -3 -12 -2 -9 4 6 10 25 14 25 6z m-90 -66 c0 -5 -4 -10 -10 -10 -5
0 -10 5 -10 10 0 6 5 10 10 10 6 0 10 -4 10 -10z"/>
<path d="M1685 3470 c-3 -5 -2 -10 4 -10 5 0 13 5 16 10 3 6 2 10 -4 10 -5 0
-13 -4 -16 -10z"/>
<path d="M1862 2821 c-13 -36 -9 -52 9 -34 6 6 9 23 7 39 l-3 29 -13 -34z"/>
<path d="M1501 3424 c0 -11 3 -14 6 -6 3 7 2 16 -1 19 -3 4 -6 -2 -5 -13z"/>
<path d="M1374 3279 c-48 -71 -70 -158 -44 -174 9 -6 14 18 12 54 -1 18 47
113 60 122 6 4 8 15 6 25 -2 15 -10 9 -34 -27z"/>
<path d="M520 2978 c0 -52 -58 -65 -99 -22 -30 31 -45 27 -51 -16 -4 -24 -13
-37 -38 -50 l-32 -18 26 -23 c14 -13 34 -31 43 -39 40 -37 86 -63 124 -72 61
-13 66 -27 67 -160 0 -115 11 -168 35 -168 35 0 47 121 19 191 -16 38 -16 45
0 93 13 41 25 57 61 81 25 17 45 38 45 47 0 9 5 20 10 23 6 3 10 24 10 46 l0
39 -50 0 c-36 0 -50 4 -50 14 0 8 -19 21 -42 29 -24 8 -51 18 -60 22 -14 6
-18 2 -18 -17z"/>
<path d="M1375 2840 c-4 -6 -10 -8 -15 -5 -14 8 -24 -45 -12 -57 20 -20 42 0
42 37 0 36 -4 43 -15 25z"/>
<path d="M1327 2703 c-10 -9 -8 -86 2 -101 6 -10 11 -6 19 17 6 17 18 31 26
31 19 0 19 2 4 35 -11 24 -37 33 -51 18z"/>
<path d="M3325 2680 c-9 -15 -73 -40 -101 -40 -44 0 -18 -57 38 -86 48 -25 95
-21 128 11 64 62 54 125 -20 125 -21 0 -42 -5 -45 -10z"/>
<path d="M168 2664 c-59 -31 -21 -112 39 -85 21 10 24 16 18 44 -10 48 -25 59
-57 41z"/>
<path d="M818 2653 c-7 -16 -23 -29 -35 -31 -26 -4 -38 -29 -22 -48 13 -16 72
-34 111 -34 31 0 88 52 88 80 0 11 -16 25 -45 39 -60 28 -81 27 -97 -6z"/>
<path d="M1381 2563 c-1 -37 2 -43 19 -43 23 0 26 13 6 30 -8 6 -17 21 -19 33
-2 12 -5 3 -6 -20z"/>
<path d="M3649 2539 c-8 -27 -22 -45 -40 -54 -48 -25 -50 -91 -3 -115 22 -12
29 -12 60 5 73 39 102 103 72 158 -31 59 -73 62 -89 6z"/>
<path d="M2917 2416 c-10 -25 -7 -208 4 -227 16 -30 37 -22 48 18 12 43 -2
149 -26 196 -16 31 -19 33 -26 13z"/>
<path d="M1434 2363 c3 -10 10 -42 16 -72 13 -67 20 -77 20 -25 0 49 -18 114
-31 114 -6 0 -8 -8 -5 -17z"/>
<path d="M1565 2340 c-3 -5 -1 -10 4 -10 6 0 11 5 11 10 0 6 -2 10 -4 10 -3 0
-8 -4 -11 -10z"/>
<path d="M3357 2337 c-8 -21 1 -159 11 -169 12 -12 47 36 38 51 -3 5 -8 33
-11 61 -3 28 -7 56 -11 61 -8 13 -21 11 -27 -4z"/>
<path d="M875 2317 c-8 -30 -2 -123 8 -133 3 -3 11 -3 18 1 13 9 6 115 -10
143 -8 14 -11 12 -16 -11z"/>
<path d="M1 2284 c0 -11 3 -14 6 -6 3 7 2 16 -1 19 -3 4 -6 -2 -5 -13z"/>
<path d="M3615 2201 c-7 -32 1 -71 14 -71 21 0 32 29 24 61 -12 43 -30 48 -38
10z"/>
<path d="M1419 1955 c-39 -21 -43 -43 -14 -81 14 -19 30 -34 36 -34 5 0 9 29
9 65 0 36 -1 65 -2 65 -2 -1 -15 -7 -29 -15z"/>
<path d="M3597 1902 c-50 -53 -25 -97 36 -65 49 26 290 27 335 2 l32 -18 0 37
0 37 -128 2 c-70 0 -142 1 -160 2 -18 0 -43 7 -55 16 -28 20 -29 20 -60 -13z"/>
<path d="M3838 1763 c-16 -2 -28 -9 -28 -15 0 -6 -8 -16 -17 -23 -15 -11 -15
-17 -5 -40 7 -15 21 -29 32 -32 11 -3 20 -10 20 -15 0 -7 4 -7 13 -1 6 6 27
15 46 22 30 10 37 9 55 -7 42 -38 46 -37 46 21 0 51 -2 55 -27 62 -15 3 -30
10 -33 14 -7 11 -68 19 -102 14z"/>
<path d="M1385 1521 c-3 -5 -1 -12 5 -16 5 -3 10 1 10 9 0 18 -6 21 -15 7z"/>
<path d="M74 1362 l-74 -3 0 -81 0 -82 38 35 c43 42 85 71 156 111 l51 28 -49
-2 c-27 -2 -82 -4 -122 -6z"/>
<path d="M1983 983 c-18 -7 -16 -33 1 -33 21 0 30 -18 17 -34 -6 -7 -8 -16 -4
-20 4 -4 2 -10 -4 -14 -17 -11 -20 -105 -4 -110 8 -3 11 0 7 7 -4 6 -2 9 6 7
7 -3 26 -7 42 -11 24 -5 27 -4 18 8 -9 10 -8 18 3 35 24 34 16 83 -19 116 -17
16 -30 31 -28 33 13 18 -8 28 -35 16z"/>
</g>
</svg>
